<svg width="620" height="115" viewBox="0 0 620 115" fill="none" xmlns="http://www.w3.org/2000/svg">
<path d="M566.219 54.9341C566.219 60.7405 568.484 65.8468 573.014 70.2119C577.049 73.671 581.291 75.4005 585.738 75.4005H587.015C590.597 75.4005 594.221 74.1651 597.927 71.7355C601.757 68.9353 604.351 65.3526 605.71 60.9876C606.122 59.8345 606.452 57.8991 606.616 55.0988C606.616 49.416 604.434 44.392 599.986 40.0681C595.868 36.4031 591.339 34.55 586.397 34.55C580.632 34.55 575.526 36.9796 571.037 41.7565C569.143 44.2273 567.99 46.3275 567.495 48.0571C566.631 50.4455 566.219 52.7516 566.219 54.8929V54.9341ZM474.14 75.5653H541.099V88.3722H474.14V75.5653ZM474.14 21.7019H541.099V34.5089H474.14V21.7019ZM180.363 21.7431H225.29V35.456H179.91C176.368 35.456 174.186 37.1855 173.403 40.6858V41.6742C173.403 43.7332 174.556 45.4627 176.862 46.8628C177.562 47.1511 178.304 47.2746 179.086 47.2746H201.9C207.747 47.2746 211.742 47.8923 213.842 49.0866C219.031 51.3926 222.613 54.9341 224.59 59.6698C225.702 62.5936 226.237 65.435 226.237 68.2352C226.237 74.9064 223.107 80.5069 216.889 85.0778C215.036 86.2309 212.895 87.1368 210.506 87.7957C208.736 88.2075 205.73 88.4134 201.57 88.4134H159.196L159.155 74.7005H204.7C208.53 74.7005 210.959 72.8062 212.03 69.0588L212.112 67.8234C212.112 65.1879 210.795 63.1289 208.2 61.7288C207.253 61.2346 206.1 60.9876 204.618 60.9876H179.045C172.333 60.9876 166.773 58.0638 162.285 52.2162C160.349 48.963 159.361 45.7098 159.361 42.3742V40.5623C159.361 33.7264 162.697 28.2907 169.368 24.3374C172.127 22.6902 175.792 21.8254 180.363 21.8254V21.7431ZM237.932 21.6607H251.275V48.5512H283.56V61.5229H251.275V88.4134H237.932V21.6607ZM291.713 21.7431H305.056V88.3722H291.713V21.7431ZM330.011 54.9753C330.011 60.7817 332.276 65.888 336.805 70.2531C340.841 73.7122 345.083 75.4417 349.53 75.4417H350.807C354.389 75.4417 358.013 74.2063 361.719 71.7767C365.549 68.9765 368.143 65.3938 369.502 61.0287C369.914 59.8757 370.243 57.9402 370.408 55.14C370.408 49.4572 368.226 44.4332 363.778 40.1093C359.66 36.4443 355.13 34.5912 350.189 34.5912C344.424 34.5912 339.317 37.0208 334.829 41.7977C332.934 44.2685 331.781 46.3687 331.287 48.0982C330.422 50.4867 330.011 52.7928 330.011 54.9341V54.9753ZM350.024 21.7431H350.518C360.772 21.7431 369.502 25.9434 376.75 34.3441C381.444 40.6447 383.792 47.4805 383.792 54.8929V55.3871C383.792 65.6409 379.509 74.3299 370.944 81.4952C364.684 86.1073 357.848 88.4546 350.436 88.4546H349.942C339.77 88.4546 331.04 84.2954 323.792 75.9771C321.281 72.4356 319.51 69.1824 318.48 66.2174C317.286 62.5112 316.668 58.8874 316.668 55.3459V54.8929C316.668 44.845 320.828 36.2384 329.105 29.0731C334.746 25.0786 339.853 22.8137 344.465 22.3196C345.906 22.0313 347.718 21.8666 350.024 21.8666V21.7431ZM395.487 21.7431H432.59C446.056 21.7431 455.362 27.6318 460.592 39.3681C461.869 42.6213 462.487 46.1628 462.487 49.9102C462.487 57.7343 459.439 64.6114 453.345 70.459C449.597 73.7945 444.985 76.0182 439.508 77.2125C437.696 77.5007 435.555 77.6243 433.125 77.6243L408.87 77.9125V88.3722H395.404V64.6938H432.055C436.831 64.6938 440.332 63.829 442.555 62.0171C445.397 60.164 447.456 57.2814 448.65 53.2046C448.897 52.0515 449.021 51.1044 449.021 50.3631V48.963C449.021 45.5039 447.538 42.086 444.532 38.7916C441.402 36.0325 437.943 34.6736 434.155 34.6736H395.487V21.6607V21.7431ZM474.14 48.6336H541.099V61.4405H474.14V48.6336ZM586.232 21.7431H586.726C596.98 21.7431 605.71 25.9434 612.958 34.3441C617.653 40.6447 620 47.4805 620 54.8929V55.3871C620 65.6409 615.717 74.3299 607.152 81.4952C600.892 86.1073 594.056 88.4546 586.644 88.4546H586.15C575.978 88.4546 567.248 84.2954 560.001 75.9771C557.489 72.4356 555.718 69.1824 554.688 66.2174C553.494 62.5112 552.877 58.8874 552.877 55.3459V54.8929C552.877 44.845 557.036 36.2384 565.313 29.0731C570.955 25.0786 576.061 22.8137 580.673 22.3196C582.114 22.0313 583.926 21.8666 586.232 21.8666V21.7431Z" fill="black"/>
<path d="M125.223 28.9083L119.828 25.5316L114.434 22.1548L100.185 13.2599L93.6377 9.18313L93.3495 8.97723L86.5136 4.69451C81.4897 1.56484 74.8597 0 68.2709 0C61.6409 0 55.0521 1.56484 50.0282 4.69451L30.6736 16.8014L11.319 28.9083C6.29506 32.038 3.78308 36.1972 3.78308 40.3152C3.78308 44.4332 6.29506 48.5923 11.319 51.722L18.1549 56.0047L18.4431 56.2106L24.9908 60.2875L39.239 69.1823L44.6336 72.5591L50.0282 75.9358C55.0521 79.0655 61.6821 80.6303 68.2709 80.6303C74.9009 80.6303 81.4897 79.0655 86.5136 75.9358L105.868 63.8289L108.421 62.1817L110.316 63.3759L117.481 67.8234C120.24 69.5529 121.64 71.8178 121.64 74.1239C121.64 76.3888 120.24 78.6949 117.481 80.4245L98.1264 92.5314L78.7718 104.638C76.0127 106.368 72.3477 107.233 68.6827 107.233C65.0177 107.233 61.3527 106.368 58.5936 104.638L51.4283 100.191L48.2574 98.2142L27.5851 85.2837L25.2378 83.8424L19.8433 80.4656C19.5962 80.3009 19.3079 80.1362 19.0608 79.9303L10.6601 74.5357L13.2133 72.8062L14.7781 71.7767L6.45978 66.7527L4.5655 67.9881C-5.48241 76.43 2.95948 80.1774 11.6073 85.5308L17.0018 88.9075L22.3964 92.2843L36.6447 101.179L43.1923 105.256L43.4806 105.462L50.3164 109.745C55.3404 112.874 61.9704 114.439 68.5592 114.439C75.1891 114.439 81.7779 112.874 86.8019 109.745L106.156 97.6377L125.511 85.5308C130.535 82.4011 133.047 78.2831 133.047 74.1239C133.047 70.0059 130.535 65.8467 125.511 62.7171L118.675 58.4344L118.387 58.2285L111.839 54.1516L97.591 45.2568L92.1964 41.88L86.8019 38.5033C81.7779 35.3736 75.1479 33.8087 68.5592 33.8087C61.9292 33.8087 55.3404 35.3736 50.3164 38.5033L30.9619 50.6102L28.4087 52.2574L26.5144 51.0631L19.3491 46.6157C16.59 44.8862 15.1899 42.6213 15.1899 40.3152C15.1899 38.0503 16.59 35.7442 19.3491 34.0146L38.7037 21.9077L58.0583 9.80083C60.8173 8.07127 64.4823 7.20649 68.1474 7.20649C71.8124 7.20649 75.4774 8.07127 78.2364 9.80083L85.4017 14.2483L88.5726 16.2249L109.245 29.1554L111.592 30.5967L116.987 33.9735C117.234 34.1382 117.522 34.3029 117.769 34.5088L126.17 39.9034L123.617 41.6329L122.052 42.6624L130.37 47.6864L132.265 46.451C142.312 38.0091 133.871 34.2617 125.223 28.9083ZM100.227 57.0342L97.6734 58.7226L78.3188 70.8295C75.5597 72.5591 71.8947 73.4239 68.2297 73.4239C64.5647 73.4239 60.8997 72.5591 58.1406 70.8295L52.746 67.4528L50.3988 66.0115L36.6035 57.4049L39.1567 55.7165L58.5112 43.6096C61.2703 41.88 64.9353 41.0152 68.6003 41.0152C72.2654 41.0152 75.9304 41.88 78.6894 43.6096L84.084 46.9863L86.4312 48.4276L100.227 57.0342Z" fill="#2A8EFF"/>
</svg>
