<svg width="702" height="180" viewBox="0 0 702 180" fill="none" xmlns="http://www.w3.org/2000/svg">
<rect width="702" height="180" fill="white"/>
<path d="M607.219 87.9341C607.219 93.7405 609.484 98.8468 614.014 103.212C618.049 106.671 622.291 108.401 626.738 108.401H628.015C631.597 108.401 635.221 107.165 638.927 104.736C642.757 101.935 645.351 98.3526 646.71 93.9876C647.122 92.8345 647.452 90.8991 647.616 88.0988C647.616 82.416 645.434 77.392 640.986 73.0681C636.868 69.4031 632.339 67.55 627.397 67.55C621.632 67.55 616.526 69.9796 612.037 74.7565C610.143 77.2273 608.99 79.3275 608.495 81.0571C607.631 83.4455 607.219 85.7516 607.219 87.8929V87.9341ZM515.14 108.565H582.099V121.372H515.14V108.565ZM515.14 54.7019H582.099V67.5089H515.14V54.7019ZM221.363 54.7431H266.29V68.456H220.91C217.368 68.456 215.186 70.1855 214.403 73.6858V74.6742C214.403 76.7332 215.556 78.4627 217.862 79.8628C218.562 80.1511 219.304 80.2746 220.086 80.2746H242.9C248.747 80.2746 252.742 80.8923 254.842 82.0866C260.031 84.3926 263.613 87.9341 265.59 92.6698C266.702 95.5936 267.237 98.435 267.237 101.235C267.237 107.906 264.107 113.507 257.889 118.078C256.036 119.231 253.895 120.137 251.506 120.796C249.736 121.208 246.73 121.413 242.57 121.413H200.196L200.155 107.7H245.7C249.53 107.7 251.959 105.806 253.03 102.059L253.112 100.823C253.112 98.1879 251.795 96.1289 249.2 94.7288C248.253 94.2346 247.1 93.9876 245.618 93.9876H220.045C213.333 93.9876 207.773 91.0638 203.285 85.2162C201.349 81.963 200.361 78.7098 200.361 75.3742V73.5623C200.361 66.7264 203.697 61.2907 210.368 57.3374C213.127 55.6902 216.792 54.8254 221.363 54.8254V54.7431ZM278.932 54.6607H292.275V81.5512H324.56V94.5229H292.275V121.413H278.932V54.6607ZM332.713 54.7431H346.056V121.372H332.713V54.7431ZM371.011 87.9753C371.011 93.7817 373.276 98.888 377.805 103.253C381.841 106.712 386.083 108.442 390.53 108.442H391.807C395.389 108.442 399.013 107.206 402.719 104.777C406.549 101.976 409.143 98.3938 410.502 94.0287C410.914 92.8757 411.243 90.9402 411.408 88.14C411.408 82.4572 409.226 77.4332 404.778 73.1093C400.66 69.4443 396.13 67.5912 391.189 67.5912C385.424 67.5912 380.317 70.0208 375.829 74.7977C373.934 77.2685 372.781 79.3687 372.287 81.0982C371.422 83.4867 371.011 85.7928 371.011 87.9341V87.9753ZM391.024 54.7431H391.518C401.772 54.7431 410.502 58.9434 417.75 67.3441C422.444 73.6447 424.792 80.4805 424.792 87.8929V88.3871C424.792 98.6409 420.509 107.33 411.944 114.495C405.684 119.107 398.848 121.455 391.436 121.455H390.942C380.77 121.455 372.04 117.295 364.792 108.977C362.28 105.436 360.51 102.182 359.48 99.2174C358.286 95.5112 357.668 91.8874 357.668 88.3459V87.8929C357.668 77.845 361.828 69.2384 370.105 62.0731C375.746 58.0786 380.853 55.8137 385.465 55.3196C386.906 55.0313 388.718 54.8666 391.024 54.8666V54.7431ZM436.487 54.7431H473.59C487.056 54.7431 496.362 60.6318 501.592 72.3681C502.869 75.6213 503.487 79.1628 503.487 82.9102C503.487 90.7343 500.439 97.6114 494.345 103.459C490.597 106.795 485.985 109.018 480.508 110.212C478.696 110.501 476.555 110.624 474.125 110.624L449.87 110.913V121.372H436.404V97.6938H473.055C477.831 97.6938 481.332 96.829 483.555 95.0171C486.397 93.164 488.456 90.2814 489.65 86.2046C489.897 85.0515 490.021 84.1044 490.021 83.3631V81.963C490.021 78.5039 488.538 75.086 485.532 71.7916C482.402 69.0325 478.943 67.6736 475.155 67.6736H436.487V54.6607V54.7431ZM515.14 81.6336H582.099V94.4405H515.14V81.6336ZM627.232 54.7431H627.726C637.98 54.7431 646.71 58.9434 653.958 67.3441C658.653 73.6447 661 80.4805 661 87.8929V88.3871C661 98.6409 656.717 107.33 648.152 114.495C641.892 119.107 635.056 121.455 627.644 121.455H627.15C616.978 121.455 608.248 117.295 601.001 108.977C598.489 105.436 596.718 102.182 595.688 99.2174C594.494 95.5112 593.877 91.8874 593.877 88.3459V87.8929C593.877 77.845 598.036 69.2384 606.313 62.0731C611.955 58.0786 617.061 55.8137 621.673 55.3196C623.114 55.0313 624.926 54.8666 627.232 54.8666V54.7431Z" fill="black"/>
<path d="M166.223 61.9083L160.828 58.5316L155.434 55.1548L141.185 46.2599L134.638 42.1831L134.349 41.9772L127.514 37.6945C122.49 34.5648 115.86 33 109.271 33C102.641 33 96.0521 34.5648 91.0282 37.6945L71.6736 49.8014L52.319 61.9083C47.2951 65.038 44.7831 69.1972 44.7831 73.3152C44.7831 77.4332 47.2951 81.5923 52.319 84.722L59.1549 89.0047L59.4431 89.2106L65.9908 93.2875L80.239 102.182L85.6336 105.559L91.0282 108.936C96.0521 112.066 102.682 113.63 109.271 113.63C115.901 113.63 122.49 112.066 127.514 108.936L146.868 96.8289L149.421 95.1817L151.316 96.376L158.481 100.823C161.24 102.553 162.64 104.818 162.64 107.124C162.64 109.389 161.24 111.695 158.481 113.424L139.126 125.531L119.772 137.638C117.013 139.368 113.348 140.233 109.683 140.233C106.018 140.233 102.353 139.368 99.5936 137.638L92.4283 133.191L89.2574 131.214L68.5851 118.284L66.2378 116.842L60.8433 113.466C60.5962 113.301 60.3079 113.136 60.0608 112.93L51.6601 107.536L54.2133 105.806L55.7781 104.777L47.4598 99.7527L45.5655 100.988C35.5176 109.43 43.9595 113.177 52.6073 118.531L58.0018 121.908L63.3964 125.284L77.6447 134.179L84.1923 138.256L84.4806 138.462L91.3164 142.745C96.3404 145.874 102.97 147.439 109.559 147.439C116.189 147.439 122.778 145.874 127.802 142.745L147.156 130.638L166.511 118.531C171.535 115.401 174.047 111.283 174.047 107.124C174.047 103.006 171.535 98.8467 166.511 95.7171L159.675 91.4344L159.387 91.2285L152.839 87.1516L138.591 78.2568L133.196 74.88L127.802 71.5033C122.778 68.3736 116.148 66.8087 109.559 66.8087C102.929 66.8087 96.3404 68.3736 91.3164 71.5033L71.9619 83.6102L69.4087 85.2574L67.5144 84.0631L60.3491 79.6157C57.59 77.8862 56.1899 75.6213 56.1899 73.3152C56.1899 71.0503 57.59 68.7442 60.3491 67.0146L79.7037 54.9077L99.0583 42.8008C101.817 41.0713 105.482 40.2065 109.147 40.2065C112.812 40.2065 116.477 41.0713 119.236 42.8008L126.402 47.2483L129.573 49.2249L150.245 62.1554L152.592 63.5967L157.987 66.9735C158.234 67.1382 158.522 67.3029 158.769 67.5088L167.17 72.9034L164.617 74.6329L163.052 75.6624L171.37 80.6864L173.265 79.451C183.312 71.0091 174.871 67.2617 166.223 61.9083ZM141.227 90.0342L138.673 91.7226L119.319 103.83C116.56 105.559 112.895 106.424 109.23 106.424C105.565 106.424 101.9 105.559 99.1406 103.83L93.746 100.453L91.3988 99.0115L77.6035 90.4049L80.1567 88.7165L99.5112 76.6096C102.27 74.88 105.935 74.0152 109.6 74.0152C113.265 74.0152 116.93 74.88 119.689 76.6096L125.084 79.9863L127.431 81.4276L141.227 90.0342Z" fill="#2A8EFF"/>
</svg>
